<svg width="423" height="162" viewBox="0 0 423 162" fill="none" xmlns="http://www.w3.org/2000/svg">
<g id="ninja">
<g id="g9307">
<g id="g5139">
<path id="left-eye" d="M120.544 108.079C120.544 127.98 103.548 144.114 82.5843 144.114C61.6201 144.114 44.625 127.981 44.625 108.079C44.625 88.177 61.6201 72.0435 82.5843 72.0435C103.548 72.0435 120.544 88.1764 120.544 108.079Z" fill="#823333"/>
<path id="use4347" fill-rule="evenodd" clip-rule="evenodd" d="M134.701 136.979C134.831 137.068 134.456 137.75 133.531 138.942C132.606 140.133 131.126 141.835 128.958 143.86C126.789 145.884 123.925 148.233 120.225 150.6C116.525 152.966 111.982 155.353 106.545 157.315C101.644 159.083 96.0235 160.494 89.8212 161.21C83.619 161.925 76.8321 161.945 69.7907 160.908C64.0909 160.068 58.2476 158.535 52.5285 156.221C46.8095 153.908 41.2147 150.813 36.1 146.9V146.9C31.5714 143.433 27.4389 139.337 23.9296 134.701C20.4199 130.066 17.5327 124.893 15.5182 119.328C13.0436 112.59 11.8795 105.04 13.5955 97.5002C14.9955 91.5593 18.2214 85.9331 22.8232 81.2729C25.5377 78.525 28.6956 76.1158 32.1702 74.0993C34.4552 72.7733 36.8566 71.6289 39.3309 70.6719C45.7717 68.2004 52.5739 66.9752 59.3132 66.7274C66.0531 66.4795 72.7299 67.2087 78.989 68.6589C85.7277 70.2155 92.0078 72.5115 97.8473 75.2202C103.687 77.929 109.086 81.0499 114.072 84.311H114.072C119.691 87.9781 124.833 91.8075 129.68 95.5738C134.526 99.3398 139.076 103.042 143.451 106.525C147.243 109.534 151.002 112.522 154.155 115.844C155.904 117.676 157.447 119.63 158.692 121.662C159.937 123.695 160.884 125.806 161.479 127.957C162.167 130.434 162.304 132.954 161.941 135.308C161.578 137.661 160.715 139.848 159.432 141.742C157.94 143.917 155.899 145.619 153.658 146.739V146.739C152.374 147.38 151.028 147.819 149.697 148.075C148.366 148.33 147.05 148.402 145.799 148.316C143.902 148.18 142.207 147.679 140.787 147.005C139.367 146.331 138.22 145.483 137.336 144.596C136.309 143.564 135.647 142.497 135.217 141.54C134.787 140.584 134.587 139.735 134.5 139.051C134.413 138.367 134.437 137.845 134.489 137.499C134.542 137.153 134.623 136.98 134.702 136.979C134.782 136.979 134.858 137.149 134.96 137.472C135.062 137.796 135.189 138.274 135.413 138.879C135.637 139.484 135.96 140.218 136.469 141.017C136.979 141.816 137.679 142.683 138.649 143.478C139.48 144.162 140.52 144.793 141.752 145.267C142.983 145.741 144.409 146.057 145.924 146.07C147.933 146.095 150.147 145.576 152.121 144.464V144.464C153.851 143.493 155.403 142.036 156.511 140.248C157.485 138.701 158.085 136.894 158.275 134.941C158.466 132.987 158.246 130.887 157.617 128.834C157.06 127.028 156.17 125.244 155.003 123.501C153.836 121.758 152.391 120.056 150.763 118.418C147.797 115.45 144.126 112.707 140.237 109.753C135.738 106.346 131.104 102.736 126.237 99.0944C121.371 95.4526 116.272 91.7785 110.78 88.3112V88.3112C105.904 85.2406 100.699 82.3122 95.1549 79.7954C89.6111 77.2787 83.7286 75.1744 77.5004 73.8056C71.7417 72.5445 65.6464 71.9076 59.5696 72.1342C53.4931 72.3608 47.4364 73.451 41.8168 75.6647C39.6529 76.5093 37.5539 77.5115 35.5627 78.6646C32.5342 80.4182 29.7962 82.4974 27.4738 84.8537C23.5425 88.8396 20.7531 93.6297 19.5728 98.6036C18.016 104.909 19.061 111.58 21.1909 117.752C22.9773 122.846 25.5678 127.612 28.7316 131.904C31.8956 136.195 35.6328 140.01 39.7378 143.252V143.252C44.3715 146.914 49.4802 149.856 54.7271 152.094C59.9743 154.333 65.3601 155.868 70.6336 156.767C77.1473 157.88 83.4947 158.028 89.346 157.528C95.1968 157.028 100.554 155.881 105.273 154.388C110.509 152.732 114.971 150.659 118.675 148.585C122.38 146.511 125.333 144.436 127.645 142.655C129.958 140.875 131.635 139.389 132.788 138.393C133.94 137.397 134.572 136.891 134.702 136.981L134.701 136.979Z" fill="black"/>
<path id="left-eye-ball" opacity="0.8" d="M99.3582 108.641C99.3582 117.682 92.2439 125.012 83.4685 125.012C74.6925 125.012 67.5788 117.682 67.5788 108.641C67.5788 99.6002 74.6932 92.2705 83.4685 92.2705C92.2445 92.2705 99.3582 99.6002 99.3582 108.641V108.641Z" fill="black"/>
<path id="left-eyebrow" fill-rule="evenodd" clip-rule="evenodd" d="M13.0138 17.8651C12.9081 17.6861 13.4095 17.2224 14.5059 16.5515C15.6024 15.8805 17.2976 15.0044 19.5987 14.0914C21.8999 13.1783 24.811 12.2307 28.2993 11.473C31.7877 10.7153 35.8567 10.1498 40.3794 10.0264V10.0264C44.6336 9.9075 49.2976 10.1805 54.1688 11.0445C59.0396 11.9086 64.117 13.365 69.092 15.5832C72.6065 17.1627 76.0198 19.0709 79.3307 21.216C82.6417 23.3607 85.8506 25.7415 88.9835 28.2242C90.1274 29.1263 91.2649 30.0417 92.4002 30.9643C97.344 34.9821 101.994 38.9036 106.705 42.2983V42.2983C113.806 47.4246 121.152 51.4655 128.066 54.5803C134.979 57.6948 141.457 59.8887 146.949 61.4691C152.443 63.0497 156.954 64.0283 160.065 64.731C163.175 65.4338 164.888 65.8766 164.85 66.1978C164.812 66.5191 163.021 66.6937 159.755 66.5519C156.49 66.4103 151.744 65.9367 145.922 64.7611C140.099 63.5856 133.196 61.695 125.803 58.7351C118.411 55.775 110.533 51.7372 102.937 46.4424V46.4424C97.9149 42.9355 93.1062 38.9594 88.2127 34.9808C87.089 34.0671 85.9739 33.165 84.8624 32.2809C81.8074 29.8624 78.7709 27.5615 75.7058 25.5045C72.6408 23.4476 69.5471 21.6351 66.3978 20.1475C61.9851 18.0448 57.4302 16.5848 53.015 15.6269C48.5999 14.669 44.3243 14.2124 40.3788 14.0935V14.0935C36.1834 13.9701 32.3499 14.2263 29.0031 14.6506C25.6566 15.075 22.794 15.6659 20.4638 16.2216C18.1332 16.7774 16.3305 17.2958 15.0777 17.6133C13.8249 17.9308 13.1185 18.0447 13.0128 17.8656L13.0138 17.8651Z" fill="black" stroke="black" stroke-width="18.5822"/>
</g>
<g id="g5145">
<path id="right-eye" d="M307.026 108.079C307.026 127.98 324.022 144.114 344.986 144.114C365.95 144.114 382.945 127.981 382.945 108.079C382.945 88.177 365.95 72.0435 344.986 72.0435C324.022 72.0435 307.026 88.1764 307.026 108.079Z" fill="#823333"/>
<path id="use5149" fill-rule="evenodd" clip-rule="evenodd" d="M292.869 136.979C292.739 137.068 293.114 137.75 294.039 138.942C294.964 140.133 296.444 141.835 298.612 143.86C300.781 145.884 303.645 148.233 307.345 150.6C311.045 152.966 315.588 155.353 321.025 157.315C325.926 159.083 331.547 160.494 337.749 161.21C343.951 161.925 350.738 161.945 357.779 160.908C363.479 160.068 369.322 158.535 375.041 156.221C380.761 153.908 386.355 150.813 391.47 146.9V146.9C395.999 143.433 400.131 139.337 403.64 134.701C407.15 130.066 410.037 124.893 412.052 119.328C414.526 112.59 415.691 105.04 413.974 97.5002C412.575 91.5593 409.349 85.9331 404.747 81.2729C402.032 78.525 398.874 76.1158 395.4 74.0993C393.115 72.7733 390.713 71.6289 388.239 70.6719C381.798 68.2004 374.996 66.9752 368.257 66.7274C361.517 66.4795 354.84 67.2087 348.581 68.6589C341.842 70.2155 335.562 72.5115 329.723 75.2202C323.883 77.929 318.484 81.0499 313.498 84.311H313.498C307.879 87.9781 302.737 91.8075 297.89 95.5738C293.044 99.3398 288.494 103.042 284.119 106.525C280.327 109.534 276.568 112.522 273.415 115.844C271.666 117.676 270.123 119.63 268.878 121.662C267.633 123.695 266.686 125.806 266.091 127.957C265.403 130.434 265.266 132.954 265.629 135.308C265.992 137.661 266.855 139.848 268.138 141.742C269.63 143.917 271.671 145.619 273.912 146.739V146.739C275.196 147.38 276.542 147.819 277.873 148.075C279.204 148.33 280.52 148.402 281.771 148.316C283.668 148.18 285.363 147.679 286.783 147.005C288.203 146.331 289.35 145.483 290.234 144.596C291.261 143.564 291.923 142.497 292.353 141.54C292.783 140.584 292.983 139.735 293.07 139.051C293.157 138.367 293.133 137.845 293.081 137.499C293.028 137.153 292.947 136.98 292.868 136.979C292.788 136.979 292.712 137.149 292.61 137.472C292.508 137.796 292.381 138.274 292.157 138.879C291.933 139.484 291.61 140.218 291.101 141.017C290.591 141.816 289.891 142.683 288.921 143.478C288.09 144.162 287.05 144.793 285.818 145.267C284.587 145.741 283.161 146.057 281.646 146.07C279.637 146.095 277.423 145.576 275.449 144.464V144.464C273.719 143.493 272.167 142.036 271.059 140.248C270.085 138.701 269.485 136.894 269.295 134.941C269.104 132.987 269.324 130.887 269.953 128.834C270.51 127.028 271.4 125.244 272.567 123.501C273.734 121.758 275.179 120.056 276.807 118.418C279.773 115.45 283.444 112.707 287.333 109.753C291.832 106.346 296.466 102.736 301.333 99.0944C306.199 95.4526 311.298 91.7785 316.79 88.3112V88.3112C321.666 85.2406 326.871 82.3122 332.415 79.7954C337.959 77.2787 343.841 75.1744 350.07 73.8056C355.828 72.5445 361.924 71.9076 368 72.1342C374.077 72.3608 380.134 73.451 385.753 75.6647C387.917 76.5093 390.016 77.5115 392.007 78.6646C395.036 80.4182 397.774 82.4974 400.096 84.8537C404.027 88.8396 406.817 93.6297 407.997 98.6036C409.554 104.909 408.509 111.58 406.379 117.752C404.593 122.846 402.002 127.612 398.838 131.904C395.674 136.195 391.937 140.01 387.832 143.252V143.252C383.199 146.914 378.09 149.856 372.843 152.094C367.596 154.333 362.21 155.868 356.936 156.767C350.423 157.88 344.075 158.028 338.224 157.528C332.373 157.028 327.016 155.881 322.297 154.388C317.061 152.732 312.599 150.659 308.895 148.585C305.19 146.511 302.237 144.436 299.925 142.655C297.612 140.875 295.935 139.389 294.782 138.393C293.63 137.397 292.998 136.891 292.868 136.981L292.869 136.979Z" fill="black"/>
<path id="right-eye-ball" opacity="0.8" d="M328.212 108.641C328.212 117.682 335.326 125.012 344.101 125.012C352.877 125.012 359.991 117.682 359.991 108.641C359.991 99.6002 352.877 92.2705 344.101 92.2705C335.325 92.2705 328.212 99.6002 328.212 108.641V108.641Z" fill="black"/>
<path id="rigth-eyebrow" fill-rule="evenodd" clip-rule="evenodd" d="M409.837 17.8651C409.942 17.6861 409.441 17.2224 408.344 16.5515C407.248 15.8805 405.553 15.0044 403.252 14.0914C400.951 13.1783 398.039 12.2307 394.551 11.473C391.063 10.7153 386.994 10.1498 382.471 10.0264V10.0264C378.217 9.9075 373.553 10.1805 368.682 11.0445C363.811 11.9086 358.733 13.365 353.758 15.5832C350.244 17.1627 346.831 19.0709 343.52 21.216C340.209 23.3607 337 25.7415 333.867 28.2242C332.723 29.1263 331.586 30.0417 330.45 30.9643C325.506 34.9821 320.856 38.9036 316.145 42.2983V42.2983C309.045 47.4246 301.698 51.4655 294.785 54.5803C287.871 57.6948 281.394 59.8887 275.901 61.4691C270.408 63.0497 265.896 64.0283 262.786 64.731C259.676 65.4338 257.962 65.8766 258.001 66.1978C258.039 66.5191 259.829 66.6937 263.095 66.5519C266.361 66.4103 271.106 65.9367 276.929 64.7611C282.752 63.5856 289.655 61.695 297.047 58.7351C304.44 55.775 312.317 51.7372 319.913 46.4424V46.4424C324.935 42.9355 329.744 38.9594 334.638 34.9808C335.761 34.0671 336.876 33.165 337.988 32.2809C341.043 29.8624 344.079 27.5615 347.145 25.5045C350.21 23.4476 353.303 21.6351 356.453 20.1475C360.865 18.0448 365.42 16.5848 369.835 15.6269C374.251 14.669 378.526 14.2124 382.472 14.0935V14.0935C386.667 13.9701 390.501 14.2263 393.847 14.6506C397.194 15.075 400.056 15.6659 402.387 16.2216C404.717 16.7774 406.52 17.2958 407.773 17.6133C409.026 17.9308 409.732 18.0447 409.838 17.8656L409.837 17.8651Z" fill="black" stroke="black" stroke-width="18.5822"/>
</g>
</g>
</g>
</svg>
