<svg width="423" height="162" fill="none">
  <g id="ninja">
    <g id="g9307">
      <g id="g5139">
        <path id="left-eye" d="M120.544 108.079c0 19.901-16.996 36.035-37.9597 36.035-20.9642 0-37.9593-16.133-37.9593-36.035 0-19.902 16.9951-36.0355 37.9593-36.0355 20.9637 0 37.9597 16.1329 37.9597 36.0355z" fill="#823333"/>
        <path id="use4347" fill-rule="evenodd" clip-rule="evenodd" d="M134.701 136.979c.13.089-.245.771-1.17 1.963-.925 1.191-2.405 2.893-4.573 4.918-2.169 2.024-5.033 4.373-8.733 6.74-3.7 2.366-8.243 4.753-13.68 6.715-4.901 1.768-10.5215 3.179-16.7238 3.895-6.2022.715-12.9891.735-20.0305-.302-5.6998-.84-11.5431-2.373-17.2622-4.687-5.719-2.313-11.3138-5.408-16.4285-9.321-4.5286-3.467-8.6611-7.563-12.1704-12.199-3.5097-4.635-6.3969-9.808-8.4114-15.373-2.4746-6.738-3.6387-14.288-1.9227-21.8278 1.4-5.9409 4.6259-11.5671 9.2277-16.2273 2.7145-2.7479 5.8724-5.1571 9.347-7.1736 2.285-1.326 4.6864-2.4704 7.1607-3.4274 6.4408-2.4715 13.243-3.6967 19.9823-3.9445 6.7399-.2479 13.4167.4813 19.6758 1.9315 6.7387 1.5566 13.0188 3.8526 18.8583 6.5613 5.8397 2.7088 11.2387 5.8297 16.2247 9.0908 5.619 3.6671 10.761 7.4965 15.608 11.2628 4.846 3.766 9.396 7.4682 13.771 10.9512 3.792 3.009 7.551 5.997 10.704 9.319 1.749 1.832 3.292 3.786 4.537 5.818 1.245 2.033 2.192 4.144 2.787 6.295.688 2.477.825 4.997.462 7.351-.363 2.353-1.226 4.54-2.509 6.434-1.492 2.175-3.533 3.877-5.774 4.997-1.284.641-2.63 1.08-3.961 1.336-1.331.255-2.647.327-3.898.241-1.897-.136-3.592-.637-5.012-1.311-1.42-.674-2.567-1.522-3.451-2.409-1.027-1.032-1.689-2.099-2.119-3.056-.43-.956-.63-1.805-.717-2.489-.087-.684-.063-1.206-.011-1.552.053-.346.134-.519.213-.52.08 0 .156.17.258.493.102.324.229.802.453 1.407s.547 1.339 1.056 2.138c.51.799 1.21 1.666 2.18 2.461.831.684 1.871 1.315 3.103 1.789 1.231.474 2.657.79 4.172.803 2.009.025 4.223-.494 6.197-1.606 1.73-.971 3.282-2.428 4.39-4.216.974-1.547 1.574-3.354 1.764-5.307.191-1.954-.029-4.054-.658-6.107-.557-1.806-1.447-3.59-2.614-5.333-1.167-1.743-2.612-3.445-4.24-5.083-2.966-2.968-6.637-5.711-10.526-8.665-4.499-3.407-9.133-7.017-14-10.6586-4.866-3.6418-9.965-7.3159-15.457-10.7832-4.876-3.0706-10.081-5.999-15.6251-8.5158-5.5438-2.5167-11.4263-4.621-17.6545-5.9898-5.7587-1.2611-11.854-1.898-17.9308-1.6714-6.0765.2266-12.1332 1.3168-17.7528 3.5305-2.1639.8446-4.2629 1.8468-6.2541 2.9999-3.0285 1.7536-5.7665 3.8328-8.0889 6.1891-3.9313 3.9859-6.7207 8.776-7.901 13.7499-1.5568 6.3054-.5118 12.9764 1.6181 19.1484 1.7864 5.094 4.3769 9.86 7.5407 14.152 3.164 4.291 6.9012 8.106 11.0062 11.348 4.6337 3.662 9.7424 6.604 14.9893 8.842 5.2472 2.239 10.633 3.774 15.9065 4.673 6.5137 1.113 12.8611 1.261 18.7124.761 5.8508-.5 11.208-1.647 15.927-3.14 5.236-1.656 9.698-3.729 13.402-5.803 3.705-2.074 6.658-4.149 8.97-5.93 2.313-1.78 3.99-3.266 5.143-4.262 1.152-.996 1.784-1.502 1.914-1.412l-.001-.002z" fill="#000"/>
        <path id="left-eye-ball" opacity=".8" d="M99.3582 108.641c0 9.041-7.1143 16.371-15.8897 16.371-8.776 0-15.8897-7.33-15.8897-16.371 0-9.0408 7.1144-16.3705 15.8897-16.3705 8.776 0 15.8897 7.3297 15.8897 16.3705z" fill="#000"/>
        <path id="left-eyebrow" fill-rule="evenodd" clip-rule="evenodd" d="M13.0138 17.8651c-.1057-.179.3957-.6427 1.4921-1.3136 1.0965-.671 2.7917-1.5471 5.0928-2.4601 2.3012-.9131 5.2123-1.8607 8.7006-2.6184 3.4884-.7577 7.5574-1.3232 12.0801-1.4466v0c4.2542-.1189 8.9182.1541 13.7894 1.0181 4.8708.8641 9.9482 2.3205 14.9232 4.5387 3.5145 1.5795 6.9278 3.4877 10.2387 5.6328 3.311 2.1447 6.5199 4.5255 9.6528 7.0082 1.1439.9021 2.2814 1.8175 3.4167 2.7401 4.9438 4.0178 9.5938 7.9393 14.3048 11.334v0c7.101 5.1263 14.447 9.1672 21.361 12.282 6.913 3.1145 13.391 5.3084 18.883 6.8888 5.494 1.5806 10.005 2.5592 13.116 3.2619 3.11.7028 4.823 1.1456 4.785 1.4668-.038.3213-1.829.4959-5.095.3541-3.265-.1416-8.011-.6152-13.833-1.7908-5.823-1.1755-12.726-3.0661-20.119-6.026-7.392-2.9601-15.27-6.9979-22.866-12.2927v0c-5.0221-3.5069-9.8308-7.483-14.7243-11.4616-1.1237-.9137-2.2388-1.8158-3.3503-2.6999-3.055-2.4185-6.0915-4.7194-9.1566-6.7764-3.065-2.0569-6.1587-3.8694-9.308-5.357-4.4127-2.1027-8.9676-3.5627-13.3828-4.5206-4.4151-.9579-8.6907-1.4145-12.6362-1.5334v0c-4.1954-.1234-8.0289.1328-11.3757.5571-3.3465.4244-6.2091 1.0153-8.5393 1.571-2.3306.5558-4.1333 1.0742-5.3861 1.3917-1.2528.3175-1.9592.4314-2.0649.2523l.001-.0005z" fill="#000" stroke="#000" stroke-width="18.5822"/>
      </g>
      <g id="g5145">
        <path id="right-eye" d="M307.026 108.079c0 19.901 16.996 36.035 37.96 36.035 20.964 0 37.959-16.133 37.959-36.035 0-19.902-16.995-36.0355-37.959-36.0355-20.964 0-37.96 16.1329-37.96 36.0355z" fill="#823333"/>
        <path id="use5149" fill-rule="evenodd" clip-rule="evenodd" d="M292.869 136.979c-.13.089.245.771 1.17 1.963.925 1.191 2.405 2.893 4.573 4.918 2.169 2.024 5.033 4.373 8.733 6.74 3.7 2.366 8.243 4.753 13.68 6.715 4.901 1.768 10.522 3.179 16.724 3.895 6.202.715 12.989.735 20.03-.302 5.7-.84 11.543-2.373 17.262-4.687 5.72-2.313 11.314-5.408 16.429-9.321 4.529-3.467 8.661-7.563 12.17-12.199 3.51-4.635 6.397-9.808 8.412-15.373 2.474-6.738 3.639-14.288 1.922-21.8278-1.399-5.9409-4.625-11.5671-9.227-16.2273-2.715-2.7479-5.873-5.1571-9.347-7.1736-2.285-1.326-4.687-2.4704-7.161-3.4274-6.441-2.4715-13.243-3.6967-19.982-3.9445-6.74-.2479-13.417.4813-19.676 1.9315-6.739 1.5566-13.019 3.8526-18.858 6.5613-5.84 2.7088-11.239 5.8297-16.225 9.0908-5.619 3.6671-10.761 7.4965-15.608 11.2628-4.846 3.766-9.396 7.4682-13.771 10.9512-3.792 3.009-7.551 5.997-10.704 9.319-1.749 1.832-3.292 3.786-4.537 5.818-1.245 2.033-2.192 4.144-2.787 6.295-.688 2.477-.825 4.997-.462 7.351.363 2.353 1.226 4.54 2.509 6.434 1.492 2.175 3.533 3.877 5.774 4.997 1.284.641 2.63 1.08 3.961 1.336 1.331.255 2.647.327 3.898.241 1.897-.136 3.592-.637 5.012-1.311 1.42-.674 2.567-1.522 3.451-2.409 1.027-1.032 1.689-2.099 2.119-3.056.43-.956.63-1.805.717-2.489.087-.684.063-1.206.011-1.552-.053-.346-.134-.519-.213-.52-.08 0-.156.17-.258.493-.102.324-.229.802-.453 1.407s-.547 1.339-1.056 2.138c-.51.799-1.21 1.666-2.18 2.461-.831.684-1.871 1.315-3.103 1.789-1.231.474-2.657.79-4.172.803-2.009.025-4.223-.494-6.197-1.606-1.73-.971-3.282-2.428-4.39-4.216-.974-1.547-1.574-3.354-1.764-5.307-.191-1.954.029-4.054.658-6.107.557-1.806 1.447-3.59 2.614-5.333 1.167-1.743 2.612-3.445 4.24-5.083 2.966-2.968 6.637-5.711 10.526-8.665 4.499-3.407 9.133-7.017 14-10.6586 4.866-3.6418 9.965-7.3159 15.457-10.7832 4.876-3.0706 10.081-5.999 15.625-8.5158 5.544-2.5167 11.426-4.621 17.655-5.9898 5.758-1.2611 11.854-1.898 17.93-1.6714 6.077.2266 12.134 1.3168 17.753 3.5305 2.164.8446 4.263 1.8468 6.254 2.9999 3.029 1.7536 5.767 3.8328 8.089 6.1891 3.931 3.9859 6.721 8.776 7.901 13.7499 1.557 6.3054.512 12.9764-1.618 19.1484-1.786 5.094-4.377 9.86-7.541 14.152-3.164 4.291-6.901 8.106-11.006 11.348-4.633 3.662-9.742 6.604-14.989 8.842-5.247 2.239-10.633 3.774-15.907 4.673-6.513 1.113-12.861 1.261-18.712.761-5.851-.5-11.208-1.647-15.927-3.14-5.236-1.656-9.698-3.729-13.402-5.803-3.705-2.074-6.658-4.149-8.97-5.93-2.313-1.78-3.99-3.266-5.143-4.262-1.152-.996-1.784-1.502-1.914-1.412l.001-.002z" fill="#000"/>
        <path id="right-eye-ball" opacity=".8" d="M328.212 108.641c0 9.041 7.114 16.371 15.889 16.371 8.776 0 15.89-7.33 15.89-16.371 0-9.0408-7.114-16.3705-15.89-16.3705s-15.889 7.3297-15.889 16.3705z" fill="#000"/>
        <path id="rigth-eyebrow" fill-rule="evenodd" clip-rule="evenodd" d="M409.837 17.8651c.105-.179-.396-.6427-1.493-1.3136-1.096-.671-2.791-1.5471-5.092-2.4601-2.301-.9131-5.213-1.8607-8.701-2.6184-3.488-.7577-7.557-1.3232-12.08-1.4466v0c-4.254-.1189-8.918.1541-13.789 1.0181-4.871.8641-9.949 2.3205-14.924 4.5387-3.514 1.5795-6.927 3.4877-10.238 5.6328-3.311 2.1447-6.52 4.5255-9.653 7.0082-1.144.9021-2.281 1.8175-3.417 2.7401-4.944 4.0178-9.594 7.9393-14.305 11.334v0c-7.1 5.1263-14.447 9.1672-21.36 12.282-6.914 3.1145-13.391 5.3084-18.884 6.8888-5.493 1.5806-10.005 2.5592-13.115 3.2619-3.11.7028-4.824 1.1456-4.785 1.4668.038.3213 1.828.4959 5.094.3541 3.266-.1416 8.011-.6152 13.834-1.7908 5.823-1.1755 12.726-3.0661 20.118-6.026 7.393-2.9601 15.27-6.9979 22.866-12.2927v0c5.022-3.5069 9.831-7.483 14.725-11.4616 1.123-.9137 2.238-1.8158 3.35-2.6999 3.055-2.4185 6.091-4.7194 9.157-6.7764 3.065-2.0569 6.158-3.8694 9.308-5.357 4.412-2.1027 8.967-3.5627 13.382-4.5206 4.416-.9579 8.691-1.4145 12.637-1.5334v0c4.195-.1234 8.029.1328 11.375.5571 3.347.4244 6.209 1.0153 8.54 1.571 2.33.5558 4.133 1.0742 5.386 1.3917 1.253.3175 1.959.4314 2.065.2523l-.001-.0005z" fill="#000" stroke="#000" stroke-width="18.5822"/>
      </g>
    </g>
  </g>
</svg>
